# xmcd CD database file
#
# Track frame offsets:
#	150
#	14349
#	29408
#	45474
#	61297
#	78282
#	95141
#	116857
#	136107
#	151671
#	166344
#	184485
#	198509
#	215737
#	232234
#	247853
#	264867
#	282604
#
# Disc length: 3960 seconds
#
# Revision: 0
# Processed by: cddbd v1.5.1PL0 Copyright (c) Steve Scherf et al.
# Submitted via: CDex 1.51
#
DISCID=010f7612
DTITLE=Varios - Cara de Boi Sertaneja
DYEAR=2004
DGENRE=Country
TTITLE0=Cara de Boi - Gino e Geno
TTITLE1=To Indo Embora - Rio Negro e Solimoes
TTITLE2=Porta Retrato - Edson e Hudson
TTITLE3=Nosso Amor e Ouro - Zeze Di Camargo e Luciano
TTITLE4=Um Degrau Na Escada - Chico Rey e Parana
TTITLE5=Nada Mudou - Di Paula e Paulino
TTITLE6=Sera - Bruno e Marrone
TTITLE7=Decida - Milionario e Jose Rico
TTITLE8=Meu Coracao Chorou - Cleyton e Camargo
TTITLE9=Dois a Um - Roberta Miranda
TTITLE10=Amor de Mais - Rene e Ronaldo
TTITLE11=Amo Voce - Gino e Geno
TTITLE12=Floresca - Rio Negro e Solimoes
TTITLE13=Olhos do Amor - Gian e Giovani
TTITLE14=O Bicho Vai Pegar - Edson e Hudson
TTITLE15=Esse Cara Nao Existe Mais - Zeze Di Camargo e Luciano
TTITLE16=De la Pra Ca - Chico Rey e Parana
TTITLE17=Teimosia - Gian e Giovani
EXTD=YEAR: 2004
EXTT0=
EXTT1=
EXTT2=
EXTT3=
EXTT4=
EXTT5=
EXTT6=
EXTT7=
EXTT8=
EXTT9=
EXTT10=
EXTT11=
EXTT12=
EXTT13=
EXTT14=
EXTT15=
EXTT16=
EXTT17=
PLAYORDER=
